# xmcd CD database file
#
# Track frame offsets:
#	150
#	13764
#	34374
#	54823
#	67916
#	91236
#	107712
#	124758
#	141215
#	161806
#	182395
#	200329
#
# Disc length: 2879 seconds
#
# Revision: 0
# Processed by: cddbd v1.5.2PL0 Copyright (c) Steve Scherf et al.
# Submitted via: CDex 1.51
#
DISCID=9b0b3d0c
DTITLE=MICHAEL COLEMAN - Chicago Blues Session Volume 34(Shake Your Booty)
DYEAR=1995
DGENRE=Blues
TTITLE0=Mojo
TTITLE1=Lost My Job In The City
TTITLE2=Shake Your Booty
TTITLE3=Kansas City
TTITLE4=Homeless Man
TTITLE5=Love Somebody
TTITLE6=Hey Joe
TTITLE7=Midnight Rider
TTITLE8=Hurt Avenue
TTITLE9=Tee Ni Nee Na Nu
TTITLE10=I Play The Blues For You
TTITLE11=Tore Down
EXTD=YEAR: 1995
EXTT0=
EXTT1=
EXTT2=
EXTT3=
EXTT4=
EXTT5=
EXTT6=
EXTT7=
EXTT8=
EXTT9=
EXTT10=
EXTT11=
PLAYORDER=
